<?xml version="1.0" encoding="UTF-8"?>
<svg id="Layer_1" xmlns="http://www.w3.org/2000/svg" version="1.1" viewBox="0 0 843 692">
  <!-- Generator: Adobe Illustrator 29.6.1, SVG Export Plug-In . SVG Version: 2.1.1 Build 9)  -->
  <defs>
    <style>
      .st0 {
        fill: #fff;
        fill-rule: evenodd;
      }
    </style>
  </defs>
  <path class="st0" d="M809.3,82.1c11.4-7.1,21.7-15.7,31.7-28.4.1-.2,0-.5-.3-.5-30.4,6.9-55.1,22.1-82.2,31.2-.3,0-.5-.3-.3-.4,12.8-10.3,26.5-19.1,39.3-29.2,13.3-10.4,27.6-20.5,34.2-40.5,0-.2-.2-.4-.4-.3-43,20.5-75.6,52.7-116.4,71.1-.3.1-.5-.2-.3-.4,25.8-27.1,65.7-40.6,75.6-82.3,0-.3-.2-.4-.4-.3-36.2,29.5-72.4,59-108.6,88.5-.2.2-.5,0-.4-.3,7.7-14.5,34.2-49.2,33.6-67.8q-.3,0-.5-.1c-9.2,16.4-19.5,30.5-25,36.9-15.9,18.5-31.9,36.6-51,51.6-28.9,22.7-54.5,48.7-89.9,64.4-28.8,12.8-53.9,36.9-72.4,64.7-4.5,6.8-8.8,14.4-10.8,22.2-5.8,23-11,46.2-15.4,69.6-4.3,22.7-.2,30.4,20,42.8,4.1,2.5,6.9,5.8,5.6,10.8-1.9,7.8-5.6,14.7-12.7,19-5.8,3.5-7.4-2.4-10.3-5.2-7.4-7.1-18.7-10.9-30-11.2-11.3.3-22.7,4.1-30,11.2-2.9,2.8-4.5,8.6-10.3,5.2-7.1-4.2-10.7-11.2-12.7-19-1.2-5,1.6-8.3,5.7-10.8,20.2-12.2,24.3-20,20-42.8-4.4-23.3-9.6-46.5-15.4-69.6-2-7.9-6.3-15.4-10.8-22.2-18.5-27.8-43.6-51.9-72.4-64.7-35.4-15.7-61.1-41.6-89.9-64.4-19.1-15-35.2-33.1-51-51.6-5.5-6.4-15.8-20.5-24.9-36.9q-.3,0-.5.1c-.6,18.5,25.9,53.2,33.6,67.8.1.3-.2.5-.4.3C126.7,61.1,90.4,31.6,54.2,2.1c-.2-.1-.5,0-.4.3,9.9,41.8,49.8,55.2,75.6,82.3.2.2,0,.5-.3.4C88.3,66.7,55.7,34.5,12.7,14c-.1,0-.4.3-.3.5,6.6,20,20.9,30.1,34.2,40.5,12.8,10,26.5,18.9,39.3,29.2.2.2,0,.5-.3.5-27.1-9.1-51.8-24.3-82.2-31.2-.3,0-.4.3-.3.5,10,12.6,20.3,21.2,31.7,28.4,10.9,6.7,22.4,12.4,33.4,19.2.3.1,0,.5-.2.5-20.1-3.9-37.9-16.2-61.7-16.4-.2,0-.3.3-.2.5,21.1,23.4,47.8,33.2,73.1,45.6.3.1.1.5-.2.5-15.3-3.8-30.6-7.6-49.2-12.2-.3,0-.4.2-.3.4,18.1,24.8,42,33.5,70,42.6,0,.3,0,.2,0,.4-7,1.4-10.7,3.2-11.2,5.7-.4,2.1,1.4,4.2,5.2,7.3,14.6,12.3,25.7,12.6,27.6,20.4,1,3.9,1.2,4.9-.1,9.1-1.8,5.6,8.6,7.9,13.7,11.3,6.9,4.6,16.7,6,13.9,18.7-1.2,6,6.3,8,10.7,10.6,17,10.1,34.7,20.3,38.9,41.2,4.1,20,21,32.4,26.7,51.1,1.1,3.6,3.4,6.6,2.6,10.9-.6,3.1-.5,7.8,1.4,9.7,8.6,8.6,18.6,15.1,18.8,30,.1,5.8,10.8,4.3,17,4.8,5.6.6,12.5,1.3,9.6,8.8-7.5,19.1,4.4,18.5,16.8,17.4.1,0,.3.1.3.3-.7,17.8,2.5,20.7,19.4,16.3,6.3-1.6,6.2,2.4,7.1,5,2.9,8.1,4.4,16.4,7.3,24.4,1.6,4.5,7.5,5.7,10.7,2.2,2.7-3,7.6-2.1,9.1,1.6,1.1,2.7,1.4,5.6,2.2,8.2,3.1,12.6,5.2,25.8,24,10.9.2-.1.5,0,.4.2-1.4,14.2,1.2,24.2,8.1,33.5,2.3,3,1.7,4.3,1.8,4.9.3,6.2-7.1,13.1-12.4,12.2-2.6-.4-2.8-2.4-6.6-6-11.8-11.2-24.2-16.9-31.5,0-.1.3,0,.5.3.3,4.9-1.7,10-2.5,13-1.3,1.4.5,2.1,1.7,2.4,2.7.8,2.3,0,4.8-3.3,6.1-7.7,2.9-15.3,4.1-17,15.3,0,.3.1.3.2.3,1.8-.9,21.7-10.5,30.7-2.7,2.3,2,3.5,4.3,3.8,4.9,4.2,9-1.6,20.6-2.3,20.4-.7-.1,2.5-11.7-5.8-17-12.6-8-27.6,15.6-51,46-3.5,4.5-8.1,11.3-.7,18.1,10.3,9.4,49.6-32,50.3-32.6-.7,1.1-20.6,28.7-25.1,34.1h0c-3.1,4.8-7.8,11.7-1.8,17.4,0,0,1.8,2.2,4.8,2.6,9.9,1.5,16.6-8.1,31-23.4.2-.2.5,0,.4.3-3.4,6.6-7,13.1-10,19.8-3.7,8.4-3,16.2,7.9,17.6,17,2.2,31.4,10.9,45.6,18.9,6.5,3.7,12.2,5.7,17.8,6,5.6-.3,11.3-2.4,17.8-6,14.1-8,28.5-16.7,45.6-18.9,10.9-1.4,11.6-9.1,7.9-17.6-2.9-6.8-6.5-13.3-10-19.8-.1-.3.2-.5.4-.3,14.4,15.3,21.2,24.9,31,23.4,3-.5,4.8-2.6,4.8-2.6,6-5.7,1.2-12.6-1.8-17.4h0c-4.5-5.4-24.5-33.1-25.1-34.1.7.5,40.1,42,50.3,32.6,7.5-6.8,2.8-13.6-.7-18.1-23.4-30.3-38.4-54-51-46-8.2,5.2-5,16.8-5.8,17-.7.2-6.5-11.5-2.3-20.4.3-.5,1.5-2.9,3.8-4.9,9-7.8,28.9,1.8,30.7,2.7,0,0,.3,0,.2-.3-1.6-11.1-9.3-12.3-17-15.3-3.4-1.3-4.1-3.8-3.3-6.1.3-1,1-2.2,2.4-2.7,3.1-1.2,8.2-.4,13.1,1.3.3.1.4,0,.3-.3-7.3-17-19.7-11.3-31.5,0-3.9,3.6-4.1,5.6-6.6,6-5.3.9-12.7-6-12.4-12.2,0-.6-.5-1.9,1.7-4.9,6.9-9.4,9.6-19.3,8.1-33.5,0-.2.3-.4.4-.2,18.7,14.9,20.8,1.6,24-10.9.7-2.7,1.1-5.6,2.2-8.2,1.4-3.7,6.3-4.7,9.1-1.6,3.2,3.6,9,2.4,10.6-2.2,2.9-8.1,4.4-16.4,7.3-24.4,1-2.7.8-6.7,7.1-5,16.9,4.4,20.1,1.5,19.4-16.3,0-.1.1-.3.3-.3,12.3,1,24.2,1.6,16.8-17.4-3-7.5,3.9-8.2,9.6-8.8,6.2-.6,16.8,1,17-4.8.3-14.9,10.3-21.4,18.9-30,1.9-1.9,1.9-6.6,1.4-9.7-.8-4.3,1.5-7.2,2.6-10.9,5.8-18.7,22.7-31.2,26.7-51.1,4.2-20.9,22-31.2,38.9-41.2,4.4-2.6,12-4.6,10.7-10.6-2.8-12.7,7.1-14.1,13.9-18.7,5.1-3.4,15.5-5.7,13.7-11.3-1.4-4.2-1.1-5.2-.1-9.1,2-7.8,13-8.1,27.6-20.4,3.7-3.1,5.6-5.2,5.2-7.3-.5-2.5-4.3-4.3-11.2-5.7,0-.3,0-.2,0-.4,27.9-9.1,51.8-17.8,70-42.6.1-.2,0-.5-.3-.4-18.5,4.6-34,8.4-49.2,12.2-.3,0-.5-.3-.2-.5,25.4-12.4,52.1-22.2,73.1-45.6.1-.1,0-.5-.2-.5-23.8.3-41.6,12.6-61.7,16.4-.3,0-.5-.3-.2-.5,11.3-6.9,22.8-12.6,33.7-19.3ZM431.5,467.2c-3.2,10.7-6.1,21.5-9.6,34.1-3.5-12.6-6.4-23.4-9.6-34.1-1.7-5.9-.3-10.6,4.6-14,1.6-1.1,3.3-1.9,4.9-2.4,1.7.5,3.3,1.2,4.9,2.4,5.1,3.5,6.5,8.1,4.7,14Z"/>
</svg>